<svg width="36" height="36" viewBox="0 0 36 36" fill="none" xmlns="http://www.w3.org/2000/svg">
<path id="Vector" d="M36 31.1127C36 31.8475 35.7435 32.4714 35.2305 32.9844L33.0052 35.2305C32.4645 35.7435 31.8336 36 31.1127 36C30.3778 36 29.7539 35.7435 29.2409 35.2305L21.6915 27.6603C21.1646 27.1612 20.9012 26.5373 20.9012 25.7886C20.9012 25.0537 21.1993 24.3882 21.7955 23.792L16.4714 18.4679L13.851 21.0884C13.6568 21.2825 13.4211 21.3795 13.1438 21.3795C12.8666 21.3795 12.6308 21.2825 12.4367 21.0884C12.4645 21.1161 12.5511 21.1993 12.6967 21.338C12.8423 21.4766 12.9289 21.5667 12.9567 21.6083C12.9844 21.6499 13.0537 21.7296 13.1646 21.8475C13.2756 21.9653 13.3449 22.0589 13.3726 22.1282C13.4003 22.1976 13.4419 22.2912 13.4974 22.409C13.5529 22.5269 13.591 22.6412 13.6118 22.7522C13.6326 22.8631 13.643 22.9879 13.643 23.1265C13.643 23.6534 13.4489 24.1248 13.0607 24.5407C13.0191 24.5823 12.9047 24.7071 12.7175 24.9151C12.5303 25.123 12.3986 25.2652 12.3224 25.3414C12.2461 25.4177 12.1179 25.5321 11.9376 25.6846C11.7574 25.8371 11.6049 25.9445 11.4801 26.0069C11.3553 26.0693 11.2028 26.1317 11.0225 26.1941C10.8423 26.2565 10.662 26.2877 10.4818 26.2877C9.92721 26.2877 9.45581 26.0936 9.06759 25.7054L0.582322 17.2201C0.194107 16.8319 0 16.3605 0 15.8059C0 15.6256 0.0311958 15.4454 0.0935875 15.2652C0.155979 15.0849 0.218371 14.9324 0.280763 14.8076C0.343154 14.6828 0.450607 14.5303 0.60312 14.3501C0.755633 14.1698 0.870017 14.0416 0.946274 13.9653C1.02253 13.8891 1.16464 13.7574 1.37262 13.5702C1.58059 13.383 1.70537 13.2686 1.74697 13.227C2.16291 12.8388 2.63432 12.6447 3.16118 12.6447C3.29983 12.6447 3.42461 12.6551 3.53553 12.6759C3.64645 12.6967 3.76083 12.7348 3.87868 12.7903C3.99653 12.8458 4.09012 12.8873 4.15945 12.9151C4.22877 12.9428 4.32236 13.0121 4.44021 13.123C4.55806 13.234 4.63778 13.3033 4.67938 13.331C4.72097 13.3588 4.81109 13.4454 4.94974 13.591C5.08839 13.7366 5.17158 13.8232 5.19931 13.851C5.0052 13.6568 4.90815 13.4211 4.90815 13.1438C4.90815 12.8666 5.0052 12.6308 5.19931 12.4367L12.4367 5.19931C12.6308 5.0052 12.8666 4.90815 13.1438 4.90815C13.4211 4.90815 13.6568 5.0052 13.851 5.19931C13.8232 5.17158 13.7366 5.08839 13.591 4.94974C13.4454 4.81109 13.3588 4.72097 13.331 4.67938C13.3033 4.63778 13.234 4.55806 13.123 4.44021C13.0121 4.32236 12.9428 4.22877 12.9151 4.15945C12.8873 4.09012 12.8458 3.99653 12.7903 3.87868C12.7348 3.76083 12.6967 3.64645 12.6759 3.53553C12.6551 3.42461 12.6447 3.29983 12.6447 3.16118C12.6447 2.63432 12.8388 2.16291 13.227 1.74697C13.2686 1.70537 13.383 1.58059 13.5702 1.37262C13.7574 1.16464 13.8891 1.02253 13.9653 0.946274C14.0416 0.870017 14.1698 0.755633 14.3501 0.60312C14.5303 0.450607 14.6828 0.343154 14.8076 0.280763C14.9324 0.218371 15.0849 0.155979 15.2652 0.0935875C15.4454 0.0311958 15.6256 0 15.8059 0C16.3605 0 16.8319 0.194107 17.2201 0.582322L25.7054 9.06759C26.0936 9.45581 26.2877 9.92721 26.2877 10.4818C26.2877 10.662 26.2565 10.8423 26.1941 11.0225C26.1317 11.2028 26.0693 11.3553 26.0069 11.4801C25.9445 11.6049 25.8371 11.7574 25.6846 11.9376C25.5321 12.1179 25.4177 12.2461 25.3414 12.3224C25.2652 12.3986 25.123 12.5303 24.9151 12.7175C24.7071 12.9047 24.5823 13.0191 24.5407 13.0607C24.1248 13.4489 23.6534 13.643 23.1265 13.643C22.9879 13.643 22.8631 13.6326 22.7522 13.6118C22.6412 13.591 22.5269 13.5529 22.409 13.4974C22.2912 13.4419 22.1976 13.4003 22.1282 13.3726C22.0589 13.3449 21.9653 13.2756 21.8475 13.1646C21.7296 13.0537 21.6499 12.9844 21.6083 12.9567C21.5667 12.9289 21.4766 12.8423 21.338 12.6967C21.1993 12.5511 21.1161 12.4645 21.0884 12.4367C21.2825 12.6308 21.3795 12.8666 21.3795 13.1438C21.3795 13.4211 21.2825 13.6568 21.0884 13.851L18.4679 16.4714L23.792 21.7955C24.3882 21.1993 25.0537 20.9012 25.7886 20.9012C26.5095 20.9012 27.1404 21.1577 27.6811 21.6707L35.2305 29.2201C35.7435 29.7608 36 30.3917 36 31.1127Z" fill="#F8F8F8"/>
</svg>
