<svg width="34" height="37" viewBox="0 0 34 37" fill="none" xmlns="http://www.w3.org/2000/svg">
<path id="Vector" d="M2.93672 9.66008C3.21078 9.28083 3.57171 8.76746 3.86074 8.40054C4.72636 7.38921 4.83868 7.25663 5.62642 6.50892C5.86004 6.31158 6.1371 6.07417 6.40817 5.85062C4.40887 7.59271 4.15427 9.52133 5.98884 10.713C5.98584 10.713 5.98584 10.713 5.98584 10.7161C8.55124 12.3071 14.1732 11.9633 18.6091 9.92525C22.9058 7.95192 24.4917 5.12913 22.3711 3.45179C20.5096 3.09258 18.2901 3.05096 15.9419 3.37471L15.6978 2.96L15.9 2.27242C17.2808 2.14446 18.5927 2.17529 19.7249 2.37417C19.9989 2.42196 20.3598 2.50367 20.6294 2.56225C21.1506 2.69329 21.4336 2.77192 21.7736 2.88446C22.121 2.99083 22.4175 3.09721 22.9342 3.29454C23.4404 3.49958 23.6591 3.59208 24.0649 3.80021C24.5194 4.01367 24.961 4.25513 25.3873 4.52325C28.7659 6.71087 26.6647 10.7022 20.7028 13.4372C14.7573 16.1628 7.18093 16.5914 3.78586 14.43C3.78437 14.4269 3.77987 14.4238 3.77089 14.4207H3.77688C1.92285 13.2121 1.72816 11.4577 2.93672 9.66008ZM18.4055 24.9534L18.3575 22.496L16.6608 20.5535C11.0552 21.8608 5.54555 21.5802 2.48145 19.7225C2.47097 19.7102 2.44551 19.6979 2.43503 19.6855C0.700802 18.5863 0.272487 17.168 0.402779 15.6263C-0.00307158 17.8818 -0.0360188 18.6958 0.0223877 20.626C0.0942726 21.8346 0.772687 22.9492 2.137 23.828L2.14749 23.8403C5.41376 25.9308 12.2189 26.3841 18.4055 24.9534ZM25.4816 27.767C17.5698 31.0337 7.66765 31.2265 3.36653 28.2033C3.83103 29.3718 4.46305 30.462 5.24153 31.4377C9.18921 34.2127 18.2782 34.0354 25.537 31.0368C29.7857 29.284 32.4665 26.9514 33.1703 24.7653L33.368 24.107C33.8368 22.439 33.9251 21.0499 34 19.8135C33.9146 22.4975 30.8431 25.55 25.4816 27.767ZM8.01659 34.0585C8.26519 34.3021 9.04694 35.2903 13.0081 36.3818C14.0789 36.6254 16.7746 37.407 21.7541 36.2708L21.7841 35.8037L21.3902 35.1685C16.7701 36.2939 11.6378 35.9177 8.01659 34.0585ZM19.4493 14.6196L23.6561 17.9018C23.6561 17.9018 24.5561 18.5694 23.707 19.038C22.8608 19.5021 20.6878 20.6383 20.6878 20.6383L18.5417 19.8135L17.465 20.3068L19.3639 22.0042L19.3789 24.6451L20.4946 24.1348L21.2344 21.904C21.2344 21.904 23.5063 21.0037 24.4079 20.6645C25.3139 20.333 25.1926 21.4677 25.1926 21.4677L24.7463 26.8805L26.2289 26.2022L28.67 18.8993C28.67 18.8993 29.964 18.2518 30.8745 17.6829C31.7835 17.114 32.0951 16.1705 32.0951 16.1705C32.0951 16.1705 31.2085 15.7774 30.1871 16.0935C29.1657 16.4064 27.8344 16.9645 27.8344 16.9645L20.9274 13.9444L19.4493 14.6196ZM10.549 4.23496L13.405 6.57675L14.1852 6.4565L12.6307 4.35521C12.6307 4.35521 12.2922 3.92046 12.7475 3.81717C13.2058 3.71233 14.3649 3.46875 14.3649 3.46875L15.2365 4.18562L15.8236 4.09621L15.1587 3.00779L15.5091 1.80067L14.9415 1.88546L14.2691 2.80429C14.2691 2.80429 13.089 2.91837 12.6247 2.95846C12.1575 2.99546 12.3581 2.479 12.3581 2.479L13.2537 0L12.469 0.118708L10.4023 3.21592C10.4023 3.21592 9.71338 3.34542 9.21467 3.49188C8.71447 3.63679 8.4509 4.03454 8.4509 4.03454C8.4509 4.03454 8.81781 4.33979 9.33448 4.329C9.85565 4.31821 10.549 4.23496 10.549 4.23496ZM24.6639 34.3252L22.8159 33.3308L22.3906 33.4835L23.4853 34.4917C23.4853 34.4917 23.719 34.6967 23.4734 34.8062C23.2277 34.9141 22.6017 35.1793 22.6017 35.1793L22.0851 34.9419L21.7781 35.056L22.2079 35.5277L22.1659 36.2168L22.4864 36.1027L22.726 35.5431C22.726 35.5431 23.376 35.3442 23.6351 35.2733C23.8927 35.2009 23.8343 35.5123 23.8343 35.5123L23.5902 37L24.017 36.8474L24.8541 34.8802C24.8541 34.8802 25.224 34.7307 25.4891 34.5935C25.7542 34.4562 25.859 34.2034 25.859 34.2034C25.859 34.2034 25.6239 34.0708 25.3334 34.1371C25.0413 34.2003 24.6639 34.3252 24.6639 34.3252Z" fill="#F8F8F8"/>
</svg>
