<svg width="32" height="37" viewBox="0 0 32 37" fill="none" xmlns="http://www.w3.org/2000/svg">
<path id="Vector" d="M10.6915 13.9654C12.5555 13.6469 13.9379 11.9401 14.1483 9.90121C14.3619 7.82768 14.8435 -0.505045 11.7323 0.0249997C3.66175 1.40119 4.22816 15.0673 10.6915 13.9654ZM21.31 13.9654C27.7717 15.0673 28.3381 1.40119 20.2676 0.0241955C17.1571 -0.505849 17.638 7.82687 17.8508 9.9004C18.062 11.9401 19.446 13.6469 21.31 13.9654ZM7.37621 20.404C7.37621 19.3198 6.9914 18.3369 6.37139 17.6218C5.35138 16.2819 2.10893 13.5721 1.31292 14.2662C-0.348703 15.7188 -0.295102 19.294 0.705712 21.892C1.22012 23.3365 2.46254 24.3524 3.91456 24.3524C5.82579 24.3524 7.37621 22.5845 7.37621 20.404ZM30.6861 14.2662C29.8917 13.5721 26.6493 16.2819 25.6293 17.6218C25.0093 18.3369 24.6237 19.3198 24.6237 20.404C24.6237 22.5845 26.1757 24.3524 28.0853 24.3524C29.5381 24.3524 30.7813 23.3365 31.2958 21.892C32.2942 19.294 32.3494 15.7188 30.6861 14.2662ZM24.1773 26.5538C21.2364 25.0795 21.3276 22.2402 20.6588 19.6495C20.1268 17.5832 18.2428 16.055 16.0003 16.055C14.9602 16.0522 13.9472 16.3888 13.1136 17.0142C12.2799 17.6396 11.6706 18.52 11.3771 19.5232C10.6611 22.0022 11.0923 24.888 7.88662 26.5345C5.28258 27.3879 4.22816 28.6329 4.22816 31.5775C4.22816 33.9696 6.27059 36.5305 8.90663 36.849C11.8475 37.2946 14.1419 36.7123 16.0003 35.6474C17.8588 36.7123 20.1516 37.2938 23.0972 36.849C25.7317 36.5305 27.7749 33.9792 27.7749 31.5775C27.7741 28.5686 26.7869 27.4474 24.1773 26.5538ZM20.7076 30.1523H17.6588L17.6628 33.3696H14.3379L14.3427 30.1523H11.1075V26.935H14.3435L14.3387 23.7178H17.6636L17.6596 26.935H20.7076V30.1523Z" fill="#F8F8F8"/>
</svg>
