<svg width="38" height="38" viewBox="0 0 38 38" fill="none" xmlns="http://www.w3.org/2000/svg">
<g id="Group 1590">
<path id="Vector" d="M34.1088 19.6383C33.9728 19.6391 33.8379 19.613 33.712 19.5616C33.5861 19.5101 33.4715 19.4343 33.375 19.3385L18.6049 4.55814L3.83481 19.3385C3.63708 19.5079 3.38274 19.5964 3.12261 19.5863C2.86248 19.5763 2.61572 19.4684 2.43164 19.2844C2.24756 19.1003 2.13972 18.8535 2.12968 18.5934C2.11963 18.3333 2.20811 18.0789 2.37744 17.8812L17.8814 2.37725C18.075 2.18474 18.337 2.07669 18.6101 2.07669C18.8831 2.07669 19.1451 2.18474 19.3387 2.37725L34.8427 17.8812C34.9849 18.0263 35.0812 18.2101 35.1196 18.4096C35.1579 18.6091 35.1366 18.8156 35.0583 19.003C34.98 19.1905 34.8482 19.3508 34.6793 19.4638C34.5104 19.5767 34.312 19.6375 34.1088 19.6383Z" fill="#F8F8F8"/>
<path id="Vector_2" d="M18.6048 8.05167L6.20166 20.4962V33.075C6.20166 33.6233 6.41945 34.1491 6.80713 34.5367C7.1948 34.9244 7.7206 35.1422 8.26885 35.1422H15.504V24.8062H21.7056V35.1422H28.9408C29.489 35.1422 30.0148 34.9244 30.4025 34.5367C30.7901 34.1491 31.0079 33.6233 31.0079 33.075V20.4238L18.6048 8.05167Z" fill="#F8F8F8"/>
</g>
</svg>
